<?xml version="1.0" encoding="utf-8"?>
<!-- Generator: Adobe Illustrator 23.0.2, SVG Export Plug-In . SVG Version: 6.00 Build 0)  -->
<svg version="1.1" id="Capa_1" xmlns="http://www.w3.org/2000/svg" xmlns:xlink="http://www.w3.org/1999/xlink" x="0px" y="0px"
	 viewBox="0 0 255.1 396.9" style="enable-background:new 0 0 255.1 396.9;" xml:space="preserve">
<style type="text/css">
	.st0{fill:none;}
	.st1{fill:none;stroke:#373C43;stroke-width:0.7457;stroke-linecap:round;stroke-linejoin:round;stroke-miterlimit:10;}
	.st2{fill:none;stroke:#373C43;stroke-width:1.8643;stroke-linecap:round;stroke-linejoin:round;stroke-miterlimit:10;}
</style>
<g>
	<g>
		<path id="SVGID_x5F_1_x5F_" class="st0" d="M182.9,81.2c0,30.5-24.7,55.2-55.2,55.2c-30.5,0-55.2-24.7-55.2-55.2
			c0-30.5,24.7-55.2,55.2-55.2C158.2,26,182.9,50.7,182.9,81.2z"/>
		<text>		<textPath  xlink:href="#SVGID_x5F_1_x5F_" startOffset="100%">
<tspan  style="fill:#373C43;stroke:#373C43;stroke-width:0.3729;stroke-miterlimit:10; font-family:'AntipastoPro-DemiBold'; font-size:8.0279px; letter-spacing:200;">GRAPHIC DESIGNER</tspan>		</textPath>
</text>
	</g>
	<g>
		<path id="SVGID_x5F_2_x5F_" class="st0" d="M81.8,81.2c0-25.3,20.5-45.9,45.9-45.9c25.3,0,45.9,20.5,45.9,45.9
			c0,25.3-20.5,45.9-45.9,45.9C102.3,127.1,81.8,106.6,81.8,81.2z"/>
		<text>		<textPath  xlink:href="#SVGID_x5F_2_x5F_" startOffset="100%">
<tspan  style="fill:#373C43;stroke:#373C43;stroke-width:0.1864;stroke-miterlimit:10; font-family:'AntipastoPro-DemiBold'; font-size:15.4344px; letter-spacing:50;">CREATIVE STUDIO</tspan>		</textPath>
</text>
	</g>
	<g>
		<path class="st1" d="M74.1,67.8c-1,4.2-1.6,8.7-1.6,13.2c0,11.7,3.6,22.5,9.8,31.4"/>
		<path class="st1" d="M181.3,67.8c1,4.2,1.6,8.7,1.6,13.2c0,11.7-3.6,22.5-9.8,31.4"/>
	</g>
	<g>
		<g>
			<ellipse transform="matrix(0.8902 -0.4557 0.4557 0.8902 -23.5921 67.245)" class="st2" cx="127.7" cy="82.6" rx="38" ry="38"/>
			
				<ellipse transform="matrix(0.4092 -0.9125 0.9125 0.4092 0.1089 165.2791)" class="st2" cx="127.7" cy="82.6" rx="26.6" ry="26.6"/>
			<g>
				<line class="st2" x1="127.7" y1="44.5" x2="127.7" y2="55.9"/>
				<line class="st2" x1="127.7" y1="109.2" x2="127.7" y2="120.6"/>
			</g>
			<g>
				<line class="st2" x1="165.7" y1="82.6" x2="154.3" y2="82.6"/>
				<line class="st2" x1="101" y1="82.6" x2="89.6" y2="82.6"/>
			</g>
			<g>
				<line class="st2" x1="154.6" y1="55.7" x2="146.5" y2="63.7"/>
				<line class="st2" x1="108.8" y1="101.4" x2="100.8" y2="109.5"/>
			</g>
			<g>
				<line class="st2" x1="154.6" y1="109.5" x2="146.5" y2="101.4"/>
				<line class="st2" x1="108.8" y1="63.7" x2="100.8" y2="55.7"/>
			</g>
		</g>
		<g>
			<polyline class="st2" points="118,107.1 118,89 127.7,64.8 137.4,89 137.4,107.1 			"/>
			<path class="st2" d="M118,89c0.5,1.3,1.8,2.2,3.2,2.2c1.5,0,2.7-0.9,3.2-2.2c0.5,1.3,1.8,2.2,3.2,2.2c1.5,0,2.7-0.9,3.2-2.2
				c0.5,1.3,1.8,2.2,3.2,2.2c1.5,0,2.7-0.9,3.2-2.2"/>
			<line class="st2" x1="123.5" y1="75.2" x2="131.9" y2="75.2"/>
			<line class="st2" x1="124.5" y1="89" x2="124.5" y2="108.6"/>
			<line class="st2" x1="130.9" y1="89" x2="130.9" y2="108.6"/>
		</g>
	</g>
</g>
</svg>
